<?xml version="1.0" encoding="UTF-8" standalone="no"?><!DOCTYPE svg PUBLIC "-//W3C//DTD SVG 1.1//EN" "http://www.w3.org/Graphics/SVG/1.1/DTD/svg11.dtd"><svg width="100%" height="100%" viewBox="0 0 596 842" version="1.1" xmlns="http://www.w3.org/2000/svg" xmlns:xlink="http://www.w3.org/1999/xlink" xml:space="preserve" xmlns:serif="http://www.serif.com/" style="fill-rule:evenodd;clip-rule:evenodd;stroke-linecap:round;stroke-linejoin:round;stroke-miterlimit:1.5;"><g><ellipse cx="298.358" cy="461.541" rx="69" ry="61.941" style="fill:#fff058;fill-opacity:0.654902;stroke:#fff;stroke-width:0.24px;"/><path d="M300.77,486.135c17.316,2.314 29.822,15.817 27.908,30.134c-1.913,14.318 -17.525,24.063 -34.841,21.749c-17.316,-2.315 -29.821,-15.817 -27.908,-30.134c1.913,-14.318 17.525,-24.063 34.841,-21.749Z" style="fill:#6fd5b5;fill-opacity:0.572549;"/><path d="M337.549,393.667c20.449,3.595 35.048,17.901 32.582,31.927c-2.466,14.027 -21.07,22.495 -41.518,18.9c-20.449,-3.595 -35.049,-17.902 -32.583,-31.928c2.466,-14.026 21.07,-22.494 41.519,-18.899Z" style="fill:#6fd5b5;fill-opacity:0.572549;"/><ellipse cx="337.958" cy="471.621" rx="69" ry="61.941" style="fill:#fff058;fill-opacity:0.654902;stroke:#fff;stroke-width:0.24px;"/><ellipse cx="318.518" cy="465.741" rx="76.68" ry="65.421" style="fill:#ffe800;stroke:#fff;stroke-width:10px;"/></g><g><path d="M354.4,470.576c0.161,0.037 0.323,0.075 0.484,0.113" style="fill:none;stroke:#000;stroke-width:0.24px;"/><g><path d="M354.4,470.576l-5.492,-1.873l-8.332,-2.302l-11.073,-1.743l-7.829,-0.59l-3.493,-0.472l-4.913,-0.162l-3.231,-0.612l-4.903,-0.851l-3.042,-0.484l-6.318,-1.762l-4.262,-1.26l-4.572,-1.526l-5.76,-2.791l3.976,2.511l5.231,2.101l4.284,1.549l9.545,2.545l9.299,1.299l7.477,0.745l10.096,1.215l10.948,1.776l5.873,1.692l5.443,1.992l-0.074,-0.016c0,0 0.267,0.025 0.4,0.037" style="fill:none;stroke:#006000;stroke-width:0.24px;"/><path d="M359.274,473.76c-1.401,-0.719 -4.203,-2.157 -5.841,-2.182c-1.491,-0.022 -2.757,1.188 -3.983,2.036c-1.58,1.093 -3.544,3.173 -5.497,4.52c-2.445,1.685 -6.088,4.05 -9.172,5.592c-2.989,1.493 -6.467,2.947 -9.334,3.655c-2.552,0.631 -5.561,0.664 -7.864,0.596c-2.013,-0.059 -4.026,-0.434 -5.959,-1.001c-2.419,-0.71 -6.121,-1.961 -8.556,-3.259c-2.225,-1.186 -4.263,-2.824 -6.057,-4.532c-1.789,-1.701 -3.335,-3.664 -4.71,-5.714c-1.538,-2.292 -3.486,-6.058 -4.519,-8.037c-0.645,-1.238 -1.086,-2.572 -1.677,-3.837c-0.683,-1.465 -1.587,-3.736 -2.424,-4.952c-0.66,-0.959 -2.655,-1.387 -2.593,-2.339c0.062,-0.952 1.886,-2.334 2.964,-3.373c1.202,-1.158 2.754,-2.483 4.247,-3.576c1.578,-1.154 3.62,-2.421 5.217,-3.349c1.41,-0.82 2.851,-1.604 4.364,-2.216c1.977,-0.801 4.987,-1.93 7.502,-2.587c2.485,-0.648 5.086,-1.131 7.586,-1.351c2.462,-0.217 4.962,-0.282 7.414,0.03c2.628,0.335 6.09,1.283 8.353,1.976c1.805,0.553 3.537,1.34 5.226,2.183c1.713,0.856 3.496,1.776 5.053,2.95c1.784,1.345 4.035,3.396 5.651,5.12c1.505,1.606 2.904,3.541 4.045,5.22c1.05,1.545 1.989,3.17 2.799,4.853c0.825,1.713 1.728,4.216 2.148,5.425c0.204,0.587 0.253,1.217 0.373,1.827c0.159,0.809 -0.168,2.325 0.582,3.028" style="fill:none;stroke:#006000;stroke-width:0.24px;"/><path d="M354.612,470.466c0.952,0.895 4.356,1.792 5.134,2.341c0.289,0.205 -0.218,0.704 -0.472,0.953" style="fill:none;stroke:#006000;stroke-width:0.24px;"/><path d="M326.719,465.598c-0.323,0.284 -2.613,1.555 -2.628,1.784c-0.101,1.57 -1.408,3.461 -2.102,5.166c-0.322,0.79 -7.97,7.348 -9.298,8.514c-0.033,0.029 -0.055,0.09 -0.099,0.087c-1.016,-0.066 -1.933,0.991 -3.036,0.919" style="fill:none;stroke:#006000;stroke-width:0.24px;"/><path d="M317.096,464.788c-0.492,0.432 -1.626,2.121 -1.663,2.683c-0.028,0.438 -1.364,0.961 -1.393,1.398c-0.057,0.881 -4.333,5.133 -4.47,7.246c-0.014,0.216 -0.492,0.402 -0.506,0.618c-0.017,0.268 -0.783,0.522 -0.888,0.78c-1.096,2.694 -4.354,1.378 -5.553,2.431" style="fill:none;stroke:#006000;stroke-width:0.24px;"/><path d="M310.178,463.874c-1.738,1.526 -5.763,5.651 -5.866,7.248c-0.029,0.433 -1.168,0.793 -1.196,1.225c-0.005,0.072 -0.335,0.294 -0.395,0.347c-0.442,0.388 -2.809,2.608 -3.145,2.587c-0.307,-0.02 -1.769,0.155 -1.975,0.337" style="fill:none;stroke:#006000;stroke-width:0.24px;"/><path d="M304.301,471.066c-0.12,0.106 -0.295,0.2 -0.437,0.237c-0.103,0.027 -0.181,0.16 -0.277,0.185c-0.159,0.042 -0.401,0.13 -0.57,0.119c-0.223,-0.014 -0.433,0.128 -0.632,0.115c-0.237,-0.015 -0.533,-0.058 -0.81,-0.021c-0.945,0.126 -1.872,0.691 -2.738,1.055c-0.45,0.19 -0.847,0.264 -1.257,0.371c-0.16,0.043 -0.327,-0.005 -0.47,0.032c-0.112,0.03 -0.331,-0.052 -0.433,-0.059c-0.219,-0.014 -0.385,-0.025 -0.591,-0.038c-0.082,-0.006 -0.188,-0.063 -0.247,-0.047c-0.056,0.014 -0.247,0.018 -0.279,-0.019" style="fill:none;stroke:#006000;stroke-width:0.24px;"/><path d="M301.402,462.09c-0.198,0.175 -0.387,0.339 -0.608,0.476c-0.124,0.077 -0.204,0.187 -0.342,0.212c-0.089,0.016 -0.195,0.173 -0.279,0.216c-0.488,0.252 -0.992,0.486 -1.497,0.699c-0.099,0.042 -0.167,0.152 -0.263,0.201c-0.309,0.16 -0.629,0.461 -0.844,0.742c-0.16,0.209 -0.402,0.356 -0.552,0.573c-0.273,0.394 -0.59,0.789 -0.827,1.195c-0.127,0.217 -0.224,0.467 -0.403,0.676c-0.162,0.189 -0.319,0.378 -0.459,0.579c-0.043,0.063 -0.143,0.094 -0.182,0.16c-0.144,0.246 -0.371,0.443 -0.604,0.647c-0.055,0.049 -0.162,0.186 -0.231,0.204c-0.151,0.039 -0.267,0.197 -0.408,0.27c-0.193,0.099 -0.384,0.174 -0.58,0.274c-0.154,0.08 -0.357,0.09 -0.509,0.155c-0.11,0.046 -0.239,0.134 -0.354,0.164c-0.097,0.025 -0.309,0.037 -0.365,0.086" style="fill:none;stroke:#006000;stroke-width:0.24px;"/><path d="M296.225,466.343c-0.022,0.02 -0.169,0.005 -0.203,0.003c-0.052,-0.003 -0.14,0.067 -0.192,0.081c-0.163,0.043 -0.327,0.123 -0.481,0.187c-0.256,0.109 -0.485,0.281 -0.743,0.389c-0.461,0.195 -0.941,0.226 -1.412,0.361c-0.212,0.061 -0.502,0.099 -0.724,0.078c-0.356,-0.034 -0.734,0.052 -1.025,-0.066c-0.175,-0.071 -0.417,-0.085 -0.568,-0.146c-0.058,-0.024 -0.135,0.046 -0.172,0.004" style="fill:none;stroke:#006000;stroke-width:0.24px;"/><path d="M293.279,459.784c-0.856,0.752 -1.636,1.712 -2.646,2.295c-0.34,0.196 -0.702,0.301 -1.045,0.478c-0.254,0.131 -0.5,0.294 -0.76,0.403c-0.206,0.087 -0.535,0.207 -0.661,0.316" style="fill:none;stroke:#006000;stroke-width:0.24px;"/><path d="M350.432,469.194c0.023,-0.02 0.036,-0.104 0.057,-0.14c0.07,-0.12 0.141,-0.321 0.149,-0.446c0.004,-0.057 -0.026,-0.125 -0.02,-0.177c0.024,-0.245 -0.071,-0.53 -0.159,-0.762c-0.025,-0.067 -0.029,-0.143 -0.05,-0.211c-0.051,-0.164 -0.127,-0.321 -0.184,-0.483c-0.061,-0.172 -0.083,-0.371 -0.117,-0.543c-0.009,-0.044 0.002,-0.108 0.002,-0.152c-0.001,-0.096 -0.044,-0.185 -0.038,-0.282c0.005,-0.068 -0.047,-0.174 -0.072,-0.237c-0.055,-0.135 -0.059,-0.313 -0.099,-0.454c-0.04,-0.14 -0.023,-0.305 -0.059,-0.443c-0.124,-0.473 -0.212,-0.956 -0.347,-1.421c-0.077,-0.262 -0.081,-0.524 -0.174,-0.778c-0.126,-0.346 -0.281,-0.695 -0.42,-1.027c-0.073,-0.172 -0.106,-0.371 -0.197,-0.548c-0.213,-0.414 -0.501,-0.789 -0.737,-1.198c-0.094,-0.163 -0.16,-0.347 -0.263,-0.505c-0.274,-0.419 -0.568,-0.827 -0.871,-1.231c-0.277,-0.369 -0.512,-0.808 -0.863,-1.119c-0.179,-0.16 -0.372,-0.323 -0.57,-0.445c-0.058,-0.036 -0.106,-0.101 -0.158,-0.146c-0.152,-0.13 -0.315,-0.261 -0.48,-0.375c-0.184,-0.127 -0.364,-0.275 -0.549,-0.403c-0.028,-0.019 -0.182,-0.125 -0.209,-0.101" style="fill:none;stroke:#006000;stroke-width:0.24px;"/><path d="M339.358,466.176c0.005,-0.089 0.118,-0.193 0.155,-0.283c0.091,-0.225 0.264,-0.464 0.278,-0.684c0.027,-0.422 -0.195,-0.944 -0.166,-1.396c0.073,-1.122 0.23,-2.444 0.085,-3.37c-0.034,-0.217 -0.14,-0.453 -0.211,-0.658c-0.106,-0.308 -0.155,-0.65 -0.289,-0.955c-0.086,-0.195 -0.233,-0.374 -0.315,-0.567c-0.344,-0.817 -0.643,-1.701 -1.048,-2.487c-0.207,-0.402 -0.393,-0.822 -0.603,-1.229c-0.063,-0.123 -0.174,-0.269 -0.208,-0.404c-0.077,-0.313 -0.259,-0.605 -0.39,-0.903c-0.268,-0.612 -0.6,-1.255 -0.859,-1.869c-0.116,-0.277 -0.269,-0.823 -0.273,-1.131c-0.002,-0.185 -0.178,-0.453 -0.252,-0.622c-0.239,-0.539 -0.37,-1.158 -0.672,-1.682c-0.816,-1.415 -2.081,-2.696 -2.696,-4.155c-0.04,-0.096 -0.186,-0.212 -0.254,-0.29c-0.281,-0.319 -0.549,-0.522 -0.89,-0.721c-0.126,-0.074 -0.339,-0.393 -0.462,-0.401c-0.046,-0.003 -0.217,-0.038 -0.248,-0.074" style="fill:none;stroke:#006000;stroke-width:0.24px;"/><path d="M334.613,447.879c0.062,0.07 0.074,-0.092 0.086,-0.112c0.085,-0.146 0.213,-0.284 0.224,-0.453c0.026,-0.403 -0.2,-0.867 -0.264,-1.344c-0.153,-1.149 -0.589,-2.161 -0.971,-3.068c-0.105,-0.247 -0.24,-0.695 -0.533,-0.815" style="fill:none;stroke:#006000;stroke-width:0.24px;"/><path d="M323.792,439.646c0.198,0.225 0.281,0.597 0.393,0.864c0.268,0.636 0.619,1.292 0.711,1.978c0.088,0.658 0.221,1.345 0.34,1.973c0.053,0.277 0.044,0.626 0.136,0.906c0.452,1.379 1.045,2.723 1.507,4.137c0.098,0.298 0.26,0.587 0.372,0.882c0.098,0.259 0.131,0.564 0.24,0.816c0.065,0.15 0.16,0.338 0.182,0.499c0.042,0.306 0.131,0.641 0.212,0.951c0.083,0.318 0.086,0.665 0.209,0.989c0.096,0.254 0.245,0.627 0.273,0.896c0.037,0.345 0.16,0.674 0.207,1.027c0.031,0.231 0.041,0.556 0.126,0.77c0.132,0.335 0.14,0.705 0.263,1.051c0.02,0.055 0.079,0.075 0.088,0.142c0.145,1.052 0.146,2.112 0.405,3.089c0.127,0.484 0.383,0.926 0.513,1.419c0.033,0.128 0.155,0.254 0.189,0.383c0.087,0.332 0.4,0.599 0.486,0.929c0.057,0.217 0.232,0.438 0.328,0.665c0.044,0.105 0.187,0.179 0.215,0.287c0.041,0.156 0.173,0.447 0.276,0.564" style="fill:none;stroke:#006000;stroke-width:0.24px;"/><path d="M325.357,445.308c-0.306,-0.349 -0.616,-0.628 -0.976,-0.902c-0.262,-0.201 -0.439,-0.5 -0.695,-0.709c-0.159,-0.13 -0.37,-0.316 -0.475,-0.499c-0.355,-0.615 -0.878,-1.209 -1.35,-1.746c-0.181,-0.206 -0.393,-0.532 -0.621,-0.665c-0.397,-0.232 -0.623,-0.838 -1.027,-1.003c-0.09,-0.036 -0.282,-0.228 -0.36,-0.16" style="fill:none;stroke:#006000;stroke-width:0.24px;"/><path d="M308.908,439.805c0.583,0.664 1.088,1.516 1.775,2.105c0.776,0.664 1.462,1.398 2.226,2.076c0.389,0.345 0.804,0.668 1.204,0.995c0.325,0.265 0.564,0.642 0.898,0.897c0.315,0.241 0.713,0.686 0.929,1.016c0.581,0.89 0.991,1.882 1.355,2.878c0.187,0.514 0.457,1.002 0.642,1.525c0.431,1.217 0.667,2.51 1.007,3.733c0.265,0.957 0.549,1.999 0.803,2.959c0.11,0.419 0.43,0.816 0.603,1.23c0.33,0.789 0.561,1.692 0.851,2.513c0.073,0.206 0.019,0.488 0.113,0.671c0.118,0.23 0.248,0.69 0.237,0.854c-0.017,0.264 0.185,0.451 0.17,0.694" style="fill:none;stroke:#006000;stroke-width:0.24px;"/><path d="M301.015,442.667c-0.041,0.036 0.07,0.115 0.067,0.161c-0.006,0.103 0.003,0.233 0.017,0.352c0.08,0.695 0.465,1.239 0.938,1.778c0.436,0.496 0.933,0.924 1.455,1.323c0.346,0.264 0.617,0.655 0.976,0.903c0.447,0.309 0.853,0.65 1.281,1c0.545,0.445 1.055,0.867 1.528,1.406c0.13,0.148 0.378,0.335 0.454,0.517c0.093,0.219 0.318,0.397 0.429,0.613c0.231,0.449 0.617,0.863 0.81,1.341c0.518,1.281 1.246,2.544 1.8,3.843c0.414,0.97 0.612,2.063 1.093,2.997c0.315,0.611 0.561,1.236 0.858,1.812c0.167,0.324 0.422,0.643 0.561,0.973c0.119,0.283 0.338,0.606 0.411,0.885c0.034,0.13 0.088,0.392 0.146,0.458" style="fill:none;stroke:#006000;stroke-width:0.24px;"/><path d="M295.058,446.942c0.583,0.664 1.189,1.363 1.866,1.916c0.388,0.317 0.645,0.787 1.02,1.12c0.56,0.497 1.149,1.122 1.544,1.759c0.506,0.814 0.706,1.688 1.183,2.515c0.262,0.454 0.631,0.856 0.891,1.307c0.581,1.007 1.25,1.946 1.795,3.004c0.149,0.288 0.387,0.533 0.533,0.815c0.299,0.581 0.612,1.215 0.746,1.726c0.051,0.194 0.069,0.309 0.107,0.456c0.014,0.053 -0.01,0.155 0.027,0.197" style="fill:none;stroke:#006000;stroke-width:0.24px;"/><path d="M293.586,449.188c0.836,0.952 1.903,1.684 2.864,2.469c0.346,0.283 0.757,0.408 1.107,0.676c0.278,0.213 0.625,0.481 0.936,0.607c0.149,0.061 0.324,0.275 0.47,0.285c0.118,0.007 0.25,0.289 0.371,0.297c0.053,0.003 0.133,0.125 0.186,0.129c0.139,0.009 0.346,0.217 0.532,0.23c0.071,0.004 0.143,-0.011 0.215,-0.006c0.052,0.003 0.099,0.059 0.155,0.01" style="fill:none;stroke:#006000;stroke-width:0.24px;"/><path d="M287.117,449.416c0.268,0.305 0.53,0.667 0.859,0.894c0.291,0.202 0.459,0.571 0.77,0.753c0.211,0.123 0.308,0.44 0.509,0.579c0.441,0.305 0.786,0.764 1.217,1.094c0.155,0.119 0.289,0.329 0.418,0.476c0.276,0.314 0.545,0.626 0.859,0.894c0.137,0.118 0.223,0.299 0.363,0.414c0.312,0.255 0.614,0.574 0.88,0.877c0.108,0.123 0.255,0.371 0.399,0.455c0.28,0.163 0.524,0.554 0.748,0.809c0.086,0.098 0.231,0.216 0.29,0.331c0.254,0.493 0.723,0.909 0.925,1.387c0.181,0.43 0.404,1.002 0.676,1.312" style="fill:none;stroke:#006000;stroke-width:0.24px;"/><path d="M335.252,466.745c-0.029,0.447 -0.768,0.904 -1.082,1.18c-0.409,0.359 -0.685,0.714 -1.018,1.123c-0.453,0.554 -1.048,0.992 -1.503,1.548c-0.744,0.911 -1.59,1.795 -2.225,2.813c-0.226,0.363 -0.583,0.631 -0.767,1.017c-0.955,2 -1.949,3.938 -3.297,5.701c-0.808,1.057 -1.391,2.309 -2.402,3.197c-1.03,0.905 -1.562,1.403 -2.753,2.017c-0.526,0.271 -1.329,0.081 -1.869,0.153c-0.214,0.028 -0.447,0.006 -0.64,-0.011c-0.158,-0.014 -0.672,0.146 -0.736,0.074" style="fill:none;stroke:#006000;stroke-width:0.24px;"/><path d="M342.815,468.12c-0.502,0.441 -1.131,0.75 -1.576,1.27c-1.368,1.596 -2.796,3.17 -4.063,4.827c-0.627,0.819 -0.968,1.89 -1.489,2.739c-0.205,0.334 -0.227,0.853 -0.414,1.223c-0.4,0.788 -0.893,1.529 -1.397,2.256c-0.286,0.414 -0.825,0.685 -1.078,1.119c-0.184,0.315 -0.679,0.803 -1.006,0.941c-0.777,0.327 -1.569,0.571 -2.399,0.79c-0.258,0.067 -1.494,0.482 -1.646,0.472" style="fill:none;stroke:#006000;stroke-width:0.24px;"/><path d="M350.262,470.341c-0.518,0.454 -1.568,0.807 -2.208,1.137c-0.42,0.216 -0.708,0.716 -1.128,0.933c-0.744,0.383 -1.455,1.163 -2.093,1.724c-0.082,0.072 -1.001,0.857 -1.002,0.88c-0.015,0.234 -0.464,0.808 -0.674,0.992c-0.191,0.168 -0.747,1.017 -0.844,1.257c-0.069,0.17 -0.355,0.26 -0.424,0.429c-0.035,0.085 -0.439,0.551 -0.554,0.544c-0.408,-0.027 -0.837,0.433 -1.245,0.407c-0.084,-0.006 -0.36,-0.028 -0.397,0.004" style="fill:none;stroke:#006000;stroke-width:0.24px;"/></g></g><text x="415.68px" y="482.277px" style="font-family:'SnapITC-Regular', 'Snap ITC', fantasy;font-size:24px;fill:#a2a2a2;">W<tspan x="440.043px 455.184px 470.336px 485.336px " y="482.277px 482.277px 482.277px 482.277px ">athe</tspan>r App</text></svg>